<svg width="2028" height="1079" viewBox="0 0 2028 1079" fill="none" xmlns="http://www.w3.org/2000/svg">
<g clip-path="url(#clip0_718_489)">
<path d="M1167 261V350M795 110.5V203M938 848V932.5M1000.5 449L901.5 393.5M1507.28 748.165L1334.08 648.165M689 267L594.75 212.165M809.281 618.165L715.75 564.165M714.75 824.835L808.281 770.835M1166.5 748V848M360.555 273.689V198.218C360.555 193.125 357.872 188.457 353.565 185.84L290.726 148.069C286.137 145.31 280.489 145.31 275.899 148.069L212.99 185.84C208.612 188.457 206 193.125 206 198.218V273.689C206 278.782 208.683 283.45 212.99 286.067L275.899 323.838C282.536 327.658 288.043 325.606 290.726 323.838L353.565 286.067C357.872 283.45 360.555 278.782 360.555 273.689ZM717 562.5C717 564.985 714.985 567 712.5 567C710.015 567 708 564.985 708 562.5C708 560.015 710.015 558 712.5 558C714.985 558 717 560.015 717 562.5ZM717 826.5C717 828.985 714.985 831 712.5 831C710.015 831 708 828.985 708 826.5C708 824.015 710.015 822 712.5 822C714.985 822 717 824.015 717 826.5ZM943 936C943 938.761 940.761 941 938 941C935.239 941 933 938.761 933 936C933 933.239 935.239 931 938 931C940.761 931 943 933.239 943 936ZM1515 750C1515 752.761 1512.76 755 1510 755C1507.24 755 1505 752.761 1505 750C1505 747.239 1507.24 745 1510 745C1512.76 745 1515 747.239 1515 750ZM596 210C596 212.761 593.761 215 591 215C588.239 215 586 212.761 586 210C586 207.239 588.239 205 591 205C593.761 205 596 207.239 596 210ZM800 108C800 110.761 797.761 113 795 113C792.239 113 790 110.761 790 108C790 105.239 792.239 103 795 103C797.761 103 800 105.239 800 108ZM1265 1009.74V914.143C1265 907.692 1261.6 901.779 1256.14 898.464L1176.45 850.621C1170.63 847.126 1163.46 847.126 1157.64 850.621L1077.86 898.464C1072.31 901.779 1069 907.692 1069 914.143V1009.74C1069 1016.19 1072.4 1022.1 1077.86 1025.42L1157.64 1073.26C1166.06 1078.1 1173.04 1075.5 1176.45 1073.26L1256.14 1025.42C1261.6 1022.1 1265 1016.19 1265 1009.74ZM1244 208.98V133.928C1244 128.863 1241.33 124.221 1237.04 121.619L1174.42 84.0574C1169.85 81.3142 1164.22 81.3142 1159.65 84.0574L1096.96 121.619C1092.6 124.221 1090 128.863 1090 133.928V208.98C1090 214.044 1092.67 218.687 1096.96 221.289L1159.65 258.85C1166.26 262.648 1171.75 260.609 1174.42 258.85L1237.04 221.289C1241.33 218.687 1244 214.044 1244 208.98ZM904 383.474V277.395C904 270.237 900.216 263.676 894.141 259.997L805.507 206.908C799.033 203.031 791.066 203.031 784.593 206.908L695.859 259.997C689.685 263.676 686 270.237 686 277.395V383.474C686 390.632 689.784 397.194 695.859 400.872L784.593 453.961C793.954 459.33 801.722 456.447 805.507 453.961L894.141 400.872C900.216 397.194 904 390.632 904 383.474ZM1517 170.415V71.4635C1517 64.7864 1513.48 58.6658 1507.82 55.2345L1425.28 5.71257C1419.26 2.09581 1411.84 2.09581 1405.81 5.71257L1323.18 55.2345C1317.43 58.6658 1314 64.7864 1314 71.4635V170.415C1314 177.092 1317.52 183.212 1323.18 186.644L1405.81 236.166C1414.53 241.173 1421.76 238.484 1425.28 236.166L1507.82 186.644C1513.48 183.212 1517 177.092 1517 170.415ZM1342 387.373V321.546C1342 317.104 1339.66 313.032 1335.89 310.749L1281.01 277.805C1277 275.398 1272.06 275.398 1268.06 277.805L1213.11 310.749C1209.28 313.032 1207 317.104 1207 321.546V387.373C1207 391.815 1209.34 395.887 1213.11 398.17L1268.06 431.114C1273.85 434.446 1278.66 432.657 1281.01 431.114L1335.89 398.17C1339.66 395.887 1342 391.815 1342 387.373ZM1069 759.071V630.771C1069 622.113 1064.43 614.177 1057.11 609.728L950.175 545.517C942.366 540.828 932.754 540.828 924.945 545.517L817.894 609.728C810.445 614.177 806 622.113 806 630.771V759.071C806 767.729 810.566 775.665 817.894 780.114L924.945 844.325C936.238 850.818 945.61 847.331 950.175 844.325L1057.11 780.114C1064.43 775.665 1069 767.729 1069 759.071ZM1338.09 632.219V465.5C1338.09 454.25 1332.16 443.938 1322.62 438.156L1183.56 354.719C1173.41 348.625 1160.91 348.625 1150.75 354.719L1011.53 438.156C1001.84 443.938 996.062 454.25 996.062 465.5V632.219C996.062 643.469 1002 653.781 1011.53 659.562L1150.75 743C1165.44 751.438 1177.62 746.906 1183.56 743L1322.62 659.562C1332.16 653.781 1338.09 643.469 1338.09 632.219Z" stroke="black" stroke-width="5"/>
<path d="M38.8981 104.099L22.3338 94.1532C21.1241 93.4268 19.6351 93.4268 18.4254 94.1532L1.84254 104.099C0.688625 104.788 0 106.017 0 107.358V127.232C0 128.573 0.707236 129.802 1.84254 130.491L18.4068 140.437C20.1563 141.443 21.608 140.903 22.3152 140.437L38.8795 130.491C40.0334 129.802 40.722 128.573 40.722 127.232V107.358C40.7406 106.017 40.0334 104.788 38.8981 104.099Z" fill="black" fill-opacity="0.2"/>
<path d="M125.78 92.0514L94.1418 73.0413C91.8311 71.6529 88.9873 71.6529 86.6766 73.0413L55.0027 92.0514C52.7987 93.3686 51.4834 95.7181 51.4834 98.2813V136.266C51.4834 138.829 52.8342 141.179 55.0027 142.496L86.641 161.506C89.9826 163.428 92.7554 162.396 94.1063 161.506L125.744 142.496C127.948 141.179 129.264 138.829 129.264 136.266V98.2813C129.299 95.7181 127.948 93.3686 125.78 92.0514Z" fill="black" fill-opacity="0.2"/>
<path d="M172.012 208.319L137.273 187.458C134.736 185.934 131.613 185.934 129.076 187.458L94.2974 208.319C91.8774 209.764 90.4331 212.343 90.4331 215.156V256.839C90.4331 259.651 91.9164 262.23 94.2974 263.675L129.037 284.536C132.706 286.646 135.75 285.513 137.234 284.536L171.973 263.675C174.393 262.23 175.837 259.651 175.837 256.839V215.156C175.876 212.343 174.393 209.764 172.012 208.319Z" fill="black" fill-opacity="0.2"/>
<path d="M465.508 303.324L430.769 282.462C428.232 280.939 425.109 280.939 422.572 282.462L387.794 303.324C385.374 304.769 383.929 307.347 383.929 310.16V351.843C383.929 354.656 385.413 357.234 387.794 358.68L422.533 379.541C426.202 381.65 429.247 380.517 430.73 379.541L465.469 358.68C467.889 357.234 469.333 354.656 469.333 351.843V310.16C469.372 307.347 467.889 304.769 465.508 303.324Z" fill="black" fill-opacity="0.2"/>
<path d="M453.716 94.0038L418.977 73.1427C416.439 71.6191 413.317 71.6191 410.78 73.1427L376.001 94.0038C373.581 95.4492 372.137 98.0275 372.137 100.84V142.523C372.137 145.336 373.62 147.914 376.001 149.36L410.741 170.221C414.41 172.331 417.454 171.198 418.938 170.221L453.677 149.36C456.097 147.914 457.541 145.336 457.541 142.523V100.84C457.58 98.0275 456.097 95.4492 453.716 94.0038Z" fill="black" fill-opacity="0.2"/>
<path d="M647.608 278.078L581.279 238.207C576.435 235.295 570.473 235.295 565.628 238.207L499.225 278.078C494.604 280.841 491.846 285.768 491.846 291.144V370.812C491.846 376.188 494.679 381.116 499.225 383.878L565.554 423.75C572.559 427.782 578.372 425.616 581.204 423.75L647.534 383.878C652.154 381.116 654.912 376.188 654.912 370.812V291.144C654.986 285.768 652.154 280.841 647.608 278.078Z" fill="black" fill-opacity="0.2"/>
<path d="M1528.52 484.691L1397.02 405.649C1387.42 399.877 1375.6 399.877 1366 405.649L1234.35 484.691C1225.19 490.168 1219.73 499.937 1219.73 510.595V668.531C1219.73 679.188 1225.34 688.957 1234.35 694.434L1365.85 773.476C1379.74 781.469 1391.26 777.176 1396.87 773.476L1528.37 694.434C1537.53 688.957 1543 679.188 1543 668.531V510.595C1543.14 499.937 1537.53 490.168 1528.52 484.691Z" fill="black" fill-opacity="0.2"/>
<path d="M969.548 303.073L903.218 263.202C898.374 260.29 892.412 260.29 887.568 263.202L821.164 303.073C816.543 305.836 813.786 310.764 813.786 316.14V395.808C813.786 401.183 816.618 406.111 821.164 408.874L887.493 448.745C894.499 452.777 900.312 450.612 903.144 448.745L969.473 408.874C974.094 406.111 976.851 401.183 976.851 395.808V316.14C976.926 310.764 974.094 305.836 969.548 303.073Z" fill="black" fill-opacity="0.2"/>
<path d="M895.915 708.402L829.586 668.531C824.741 665.619 818.779 665.619 813.935 668.531L747.531 708.402C742.911 711.164 740.153 716.092 740.153 721.468V801.136C740.153 806.512 742.985 811.44 747.531 814.202L813.86 854.074C820.866 858.106 826.679 855.94 829.511 854.074L895.84 814.202C900.461 811.44 903.218 806.512 903.218 801.136V721.468C903.293 716.092 900.461 711.164 895.915 708.402Z" fill="black" fill-opacity="0.2"/>
<path d="M2013.02 317.249L1881.53 238.207C1871.92 232.434 1860.1 232.434 1850.5 238.207L1718.86 317.249C1709.69 322.725 1704.23 332.495 1704.23 343.152V501.088C1704.23 511.745 1709.84 521.515 1718.86 526.991L1850.35 606.033C1864.24 614.026 1875.76 609.734 1881.38 606.033L2012.87 526.991C2022.03 521.515 2027.5 511.745 2027.5 501.088V343.152C2027.65 332.495 2022.03 322.725 2013.02 317.249Z" fill="black" fill-opacity="0.2"/>
<path d="M1843.05 813.347L1776.72 773.476C1771.87 770.564 1765.91 770.564 1761.07 773.476L1694.66 813.347C1690.04 816.11 1687.29 821.038 1687.29 826.413V906.081C1687.29 911.457 1690.12 916.385 1694.66 919.148L1760.99 959.019C1768 963.051 1773.81 960.885 1776.64 959.019L1842.97 919.148C1847.59 916.385 1850.35 911.457 1850.35 906.081V826.413C1850.43 821.038 1847.59 816.11 1843.05 813.347Z" fill="black" fill-opacity="0.2"/>
</g>
<defs>
<clipPath id="clip0_718_489">
<rect width="2028" height="1079" fill="white"/>
</clipPath>
</defs>
</svg>
